<?xml version="1.0" encoding="UTF-8" standalone="no"?>
<!-- Created with Inkscape (http://www.inkscape.org/) -->

<svg
   width="297mm"
   height="210mm"
   viewBox="0 0 1122.5197 793.70081"
   version="1.1"
   id="svg1"
   sodipodi:docname="cover_of_blog.svg"
   inkscape:version="1.3.2 (091e20ef0f, 2023-11-25, custom)"
   xml:space="preserve"
   xmlns:inkscape="http://www.inkscape.org/namespaces/inkscape"
   xmlns:sodipodi="http://sodipodi.sourceforge.net/DTD/sodipodi-0.dtd"
   xmlns="http://www.w3.org/2000/svg"
   xmlns:svg="http://www.w3.org/2000/svg"><sodipodi:namedview
     id="namedview1"
     pagecolor="#ffffff"
     bordercolor="#000000"
     borderopacity="0.25"
     inkscape:showpageshadow="2"
     inkscape:pageopacity="0.0"
     inkscape:pagecheckerboard="0"
     inkscape:deskcolor="#d1d1d1"
     inkscape:document-units="mm"
     inkscape:zoom="0.99911706"
     inkscape:cx="628.05453"
     inkscape:cy="396.85039"
     inkscape:window-width="1920"
     inkscape:window-height="1011"
     inkscape:window-x="0"
     inkscape:window-y="0"
     inkscape:window-maximized="1"
     inkscape:current-layer="svg1" /><defs
     id="defs1" /><g
     id="g28"
     inkscape:label="g28"
     style="stroke:#000000;stroke-opacity:1;stroke-width:1.37952759;stroke-dasharray:none;paint-order:stroke fill markers"><g
       id="g23"
       transform="matrix(3.6212303,0,0,3.6212303,770.25651,212.16063)"
       style="stroke:#000000;stroke-opacity:1;stroke-width:0.3809555;stroke-dasharray:none;paint-order:stroke fill markers"><text
         xml:space="preserve"
         style="font-size:192px;font-family:Ravie;-inkscape-font-specification:Ravie;fill:#4db7db;fill-opacity:1;stroke:#000000;stroke-opacity:1;stroke-width:1.3795276;stroke-dasharray:none;paint-order:stroke fill markers"
         x="191.18834"
         y="332.91113"
         id="text1"
         transform="matrix(0.27614924,0,0,0.27614924,-212.70575,-58.587995)"><tspan
           sodipodi:role="line"
           id="tspan1"
           x="191.18834"
           y="332.91113"
           style="font-style:normal;font-variant:normal;font-weight:normal;font-stretch:normal;font-family:'FOT-Yuruka Std';-inkscape-font-specification:'FOT-Yuruka Std';fill:#4db7db;fill-opacity:1;stroke:#000000;stroke-opacity:1;stroke-width:1.3795276;stroke-dasharray:none;paint-order:stroke fill markers">T<tspan
   style="fill:#4ddb52;fill-opacity:1;stroke:#000000;stroke-opacity:1;stroke-width:1.3795276;stroke-dasharray:none;paint-order:stroke fill markers"
   id="tspan6">a</tspan><tspan
   id="tspan10"
   style="fill:#cedb4d;fill-opacity:1;stroke:#000000;stroke-opacity:1;stroke-width:1.3795276;stroke-dasharray:none;paint-order:stroke fill markers">i</tspan><tspan
   style="fill:#db4dc4;fill-opacity:1;stroke:#000000;stroke-opacity:1;stroke-width:1.3795276;stroke-dasharray:none;paint-order:stroke fill markers"
   id="tspan11">l</tspan><tspan
   style="fill:#db534d;fill-opacity:1;stroke:#000000;stroke-opacity:1;stroke-width:1.3795276;stroke-dasharray:none;paint-order:stroke fill markers"
   id="tspan12">s</tspan></tspan></text><text
         xml:space="preserve"
         style="font-style:normal;font-variant:normal;font-weight:normal;font-stretch:normal;font-size:106.667px;font-family:'FOT-Yuruka Std';-inkscape-font-specification:'FOT-Yuruka Std';fill:#f0ed9a;fill-opacity:1;stroke:#000000;stroke-opacity:1;stroke-width:1.3795276;stroke-dasharray:none;paint-order:stroke fill markers"
         x="503.92545"
         y="457.64236"
         id="text2"
         transform="matrix(0.27614924,0,0,0.27614924,-212.70575,-58.587995)"><tspan
           sodipodi:role="line"
           id="tspan2"
           x="503.92545"
           y="457.64236"
           style="font-size:106.667px;fill:#f0ed9a;fill-opacity:1;stroke:#000000;stroke-opacity:1;stroke-width:1.3795276;stroke-dasharray:none;paint-order:stroke fill markers"><tspan
             style="fill:#d7c2b3;fill-opacity:1;stroke:#000000;stroke-opacity:1;stroke-width:1.3795276;stroke-dasharray:none;paint-order:stroke fill markers"
             id="tspan13">o</tspan><tspan
             style="fill:#d26e6e;fill-opacity:1;stroke:#000000;stroke-opacity:1;stroke-width:1.3795276;stroke-dasharray:none;paint-order:stroke fill markers"
             id="tspan20">f</tspan></tspan></text><text
         xml:space="preserve"
         style="font-style:normal;font-variant:normal;font-weight:normal;font-stretch:normal;font-size:53.0207px;font-family:'FOT-Yuruka Std';-inkscape-font-specification:'FOT-Yuruka Std';fill:#8febf0;fill-opacity:1;stroke-width:0.3809555;stroke:#000000;stroke-opacity:1;stroke-dasharray:none;paint-order:stroke fill markers"
         x="-118.04429"
         y="112.06326"
         id="text3"><tspan
           sodipodi:role="line"
           id="tspan3"
           x="-118.04429"
           y="112.06326"
           style="stroke-width:0.3809555;stroke:#000000;stroke-opacity:1;stroke-dasharray:none;paint-order:stroke fill markers">Y<tspan
   style="fill:#f0a38f;fill-opacity:1;stroke-width:0.3809555;stroke:#000000;stroke-opacity:1;stroke-dasharray:none;paint-order:stroke fill markers"
   id="tspan16">u</tspan><tspan
   style="fill:#f08fc3;fill-opacity:1;stroke-width:0.3809555;stroke:#000000;stroke-opacity:1;stroke-dasharray:none;paint-order:stroke fill markers"
   id="tspan17">r</tspan><tspan
   style="fill:#8fa5f0;fill-opacity:1;stroke-width:0.3809555;stroke:#000000;stroke-opacity:1;stroke-dasharray:none;paint-order:stroke fill markers"
   id="tspan18">z</tspan><tspan
   style="fill:#1bbbc5;fill-opacity:1;stroke-width:0.3809555;stroke:#000000;stroke-opacity:1;stroke-dasharray:none;paint-order:stroke fill markers"
   id="tspan19">i</tspan></tspan></text></g><g
       id="g26"
       transform="matrix(3.3454874,1.7739304,-1.7739304,3.3454874,803.7085,168.08633)"
       style="stroke:#000000;stroke-opacity:1;stroke-width:0.36430843;stroke-dasharray:none;paint-order:stroke fill markers"><path
         fill="#ffcc4d"
         d="m 32.348,13.999 c 0,0 3.445,-8.812 1.651,-11.998 -0.604,-1.073 -8,1.998 -10.723,5.442 0,0 -2.586,-0.86 -5.276,-0.86 -2.69,0 -5.276,0.86 -5.276,0.86 C 10.001,3.999 2.605,0.928 2.001,2.001 0.207,5.187 3.652,13.999 3.652,13.999 c -0.897,1.722 -1.233,4.345 -1.555,7.16 -0.354,3.086 0.35,5.546 0.658,6.089 0.35,0.617 2.123,2.605 4.484,4.306 3.587,2.583 8.967,3.445 10.761,3.445 1.794,0 7.174,-0.861 10.761,-3.445 2.361,-1.701 4.134,-3.689 4.484,-4.306 0.308,-0.543 1.012,-3.003 0.659,-6.089 -0.324,-2.814 -0.659,-5.438 -1.556,-7.16 z"
         id="path1"
         style="stroke:#000000;stroke-opacity:1;stroke-width:0.36430843;stroke-dasharray:none;paint-order:stroke fill markers" /><path
         fill="#f18f26"
         d="m 2.359,2.971 c 0.2,-0.599 5.348,2.173 6.518,5.404 0,0 -3.808,2.624 -4.528,4.624 0,0 -2.99,-7.028 -1.99,-10.028 z"
         id="path2"
         style="stroke:#000000;stroke-opacity:1;stroke-width:0.36430843;stroke-dasharray:none;paint-order:stroke fill markers" /><path
         fill="#ffcc4d"
         d="m 5.98,7.261 c 0,-1.414 5.457,2.733 4.457,3.733 -1,1 -1.255,0.72 -2.255,1.72 -1,1 -2.202,-4.453 -2.202,-5.453 z"
         id="path3"
         style="stroke:#000000;stroke-opacity:1;stroke-width:0.36430843;stroke-dasharray:none;paint-order:stroke fill markers" /><path
         fill="#f18f26"
         d="m 33.641,2.971 c -0.2,-0.599 -5.348,2.173 -6.518,5.404 0,0 3.808,2.624 4.528,4.624 0,0 2.99,-7.028 1.99,-10.028 z"
         id="path4"
         style="stroke:#000000;stroke-opacity:1;stroke-width:0.36430843;stroke-dasharray:none;paint-order:stroke fill markers" /><path
         fill="#ffcc4d"
         d="m 30.02,7.261 c 0,-1.414 -5.457,2.733 -4.457,3.733 1,1 1.255,0.72 2.255,1.72 1,1 2.202,-4.453 2.202,-5.453 z"
         id="path5"
         style="stroke:#000000;stroke-opacity:1;stroke-width:0.36430843;stroke-dasharray:none;paint-order:stroke fill markers" /><path
         fill="#292f33"
         d="m 14.001,20.001 c 0,1.105 -0.896,1.999 -2,1.999 -1.104,0 -2,-0.894 -2,-1.999 0,-1.104 0.896,-1.999 2,-1.999 1.104,0 2,0.896 2,1.999 z m 11.998,0 c 0,1.105 -0.896,1.999 -2,1.999 -1.105,0 -2,-0.894 -2,-1.999 0,-1.104 0.895,-1.999 2,-1.999 1.105,0 2,0.896 2,1.999 z"
         id="path6"
         style="stroke:#000000;stroke-opacity:1;stroke-width:0.36430843;stroke-dasharray:none;paint-order:stroke fill markers" /><path
         fill="#fee7b8"
         d="m 2.201,30.458 c -0.148,0 -0.294,-0.065 -0.393,-0.19 -0.171,-0.217 -0.134,-0.531 0.083,-0.702 0.162,-0.127 4.02,-3.12 10.648,-2.605 0.275,0.021 0.481,0.261 0.46,0.536 -0.021,0.275 -0.257,0.501 -0.537,0.46 -6.233,-0.474 -9.915,2.366 -9.951,2.395 -0.093,0.07 -0.202,0.106 -0.31,0.106 z m 8.868,-4.663 c -0.049,0 -0.1,-0.007 -0.149,-0.022 C 6.13,24.276 2.183,25.426 2.143,25.437 1.878,25.518 1.6,25.367 1.52,25.102 1.441,24.837 1.591,24.559 1.855,24.48 c 0.173,-0.052 4.286,-1.247 9.362,0.338 0.264,0.083 0.411,0.363 0.328,0.627 -0.066,0.213 -0.263,0.35 -0.476,0.35 z m 22.73,4.663 c 0.148,0 0.294,-0.065 0.393,-0.19 0.171,-0.217 0.134,-0.531 -0.083,-0.702 -0.162,-0.127 -4.02,-3.12 -10.648,-2.605 -0.275,0.021 -0.481,0.261 -0.46,0.536 0.022,0.275 0.257,0.501 0.537,0.46 6.233,-0.474 9.915,2.366 9.951,2.395 0.093,0.07 0.202,0.106 0.31,0.106 z m -8.868,-4.663 c 0.049,0 0.1,-0.007 0.149,-0.022 4.79,-1.497 8.737,-0.347 8.777,-0.336 0.265,0.081 0.543,-0.07 0.623,-0.335 0.079,-0.265 -0.071,-0.543 -0.335,-0.622 -0.173,-0.052 -4.286,-1.247 -9.362,0.338 -0.264,0.083 -0.411,0.363 -0.328,0.627 0.066,0.213 0.263,0.35 0.476,0.35 z"
         id="path7"
         style="stroke:#000000;stroke-opacity:1;stroke-width:0.36430843;stroke-dasharray:none;paint-order:stroke fill markers" /><path
         fill="#67757f"
         d="m 24.736,30.898 c -0.097,-0.258 -0.384,-0.392 -0.643,-0.294 -0.552,0.206 -1.076,0.311 -1.559,0.311 -1.152,0 -1.561,-0.306 -2.033,-0.659 -0.451,-0.338 -0.956,-0.715 -1.99,-0.803 v -2.339 c 0,-0.276 -0.224,-0.5 -0.5,-0.5 -0.276,0 -0.5,0.224 -0.5,0.5 v 2.373 c -0.81,0.115 -1.346,0.439 -1.816,0.743 -0.568,0.367 -1.059,0.685 -2.083,0.685 -0.482,0 -1.006,-0.104 -1.558,-0.311 -0.258,-0.095 -0.547,0.035 -0.643,0.294 -0.097,0.259 0.035,0.547 0.293,0.644 0.664,0.247 1.306,0.373 1.907,0.373 1.319,0 2.014,-0.449 2.627,-0.845 0.524,-0.339 0.98,-0.631 1.848,-0.635 0.992,0.008 1.358,0.278 1.815,0.621 0.538,0.403 1.147,0.859 2.633,0.859 0.601,0 1.244,-0.126 1.908,-0.373 0.259,-0.097 0.391,-0.385 0.294,-0.644 z"
         id="path8"
         style="stroke:#000000;stroke-opacity:1;stroke-width:0.36430843;stroke-dasharray:none;paint-order:stroke fill markers" /><path
         fill="#e75a70"
         d="m 19.4,24.807 h -2.8 c -0.64,0 -1.163,0.523 -1.163,1.163 0,0.639 0.523,1.163 1.163,1.163 h 0.237 v 0.345 c 0,0.639 0.523,1.163 1.163,1.163 0.64,0 1.163,-0.523 1.163,-1.163 V 27.133 H 19.4 c 0.639,0 1.163,-0.523 1.163,-1.163 0,-0.64 -0.524,-1.163 -1.163,-1.163 z"
         id="path9"
         style="stroke:#000000;stroke-opacity:1;stroke-width:0.36430843;stroke-dasharray:none;paint-order:stroke fill markers" /><path
         fill="#f18f26"
         d="m 18.022,17.154 c -0.276,0 -0.5,-0.224 -0.5,-0.5 V 8.37 c 0,-0.276 0.224,-0.5 0.5,-0.5 0.276,0 0.5,0.224 0.5,0.5 v 8.284 c 0,0.277 -0.223,0.5 -0.5,0.5 z M 21,15.572 c -0.276,0 -0.5,-0.224 -0.5,-0.5 0,-2.882 1.232,-5.21 1.285,-5.308 0.13,-0.244 0.435,-0.334 0.677,-0.204 0.243,0.13 0.334,0.433 0.204,0.677 -0.012,0.021 -1.166,2.213 -1.166,4.835 0,0.276 -0.224,0.5 -0.5,0.5 z m -6,0 c -0.276,0 -0.5,-0.224 -0.5,-0.5 0,-2.623 -1.155,-4.814 -1.167,-4.835 -0.13,-0.244 -0.038,-0.546 0.205,-0.677 0.242,-0.131 0.545,-0.039 0.676,0.204 0.053,0.098 1.285,2.426 1.285,5.308 10e-4,0.276 -0.223,0.5 -0.499,0.5 z"
         id="path10"
         style="stroke:#000000;stroke-opacity:1;stroke-width:0.36430843;stroke-dasharray:none;paint-order:stroke fill markers" /></g><g
       id="g27"
       transform="matrix(3.5785123,-1.6754197,1.6754197,3.5785123,160.20704,499.02296)"
       style="stroke:#000000;stroke-opacity:1;stroke-width:0.34913248;stroke-dasharray:none;paint-order:stroke fill markers"><path
         fill="#f4900c"
         d="M 13.431,9.802 C 14.089,12.44 4.758,20.291 2.187,13.9 0.696,10.197 -0.606,2.434 0.874,2.065 c 1.48,-0.368 11.9,5.098 12.557,7.737 z"
         id="path1-8"
         style="stroke:#000000;stroke-opacity:1;stroke-width:0.34913248;stroke-dasharray:none;paint-order:stroke fill markers" /><path
         fill="#a0041e"
         d="m 11.437,10.355 c 0.96,1.538 -1.831,4.561 -3.368,5.522 C 6.531,16.838 5.17,15.325 3.655,11.463 2.993,9.774 1.989,5.193 2.552,4.841 3.114,4.49 10.476,8.817 11.437,10.355 Z"
         id="path2-4"
         style="stroke:#000000;stroke-opacity:1;stroke-width:0.34913248;stroke-dasharray:none;paint-order:stroke fill markers" /><path
         fill="#f4900c"
         d="M 22.557,9.802 C 21.9,12.441 31.23,20.291 33.802,13.9 35.292,10.197 36.594,2.434 35.114,2.065 33.634,1.697 23.215,7.163 22.557,9.802 Z"
         id="path3-0"
         style="stroke:#000000;stroke-opacity:1;stroke-width:0.34913248;stroke-dasharray:none;paint-order:stroke fill markers" /><path
         fill="#a0041e"
         d="m 24.552,10.355 c -0.96,1.538 1.831,4.561 3.368,5.522 1.537,0.961 2.898,-0.552 4.413,-4.414 0.662,-1.688 1.666,-6.269 1.104,-6.621 -0.563,-0.352 -7.924,3.975 -8.885,5.513 z"
         id="path4-8"
         style="stroke:#000000;stroke-opacity:1;stroke-width:0.34913248;stroke-dasharray:none;paint-order:stroke fill markers" /><path
         fill="#f18f26"
         d="m 32.347,26.912 c 0,-0.454 -0.188,-1.091 -0.407,-1.687 0.585,0.028 1.519,0.191 2.77,0.817 -0.008,-0.536 -0.118,-0.984 -0.273,-1.393 0.041,0.02 0.075,0.034 0.116,0.055 -1.103,-3.31 -3.309,-5.517 -3.309,-5.517 H 33.45 C 31.119,14.524 28.485,11.172 25.375,9.628 23.985,8.755 21.687,8.29 18.002,8.289 h -0.003 c -3.695,0 -5.996,0.468 -7.385,1.346 C 7.51,11.182 4.88,14.531 2.553,19.187 H 4.76 c 0,0 -2.207,2.206 -3.311,5.517 0.03,-0.015 0.055,-0.025 0.084,-0.04 C 1.332,25.056 1.226,25.511 1.251,26.041 2.514,25.409 3.468,25.249 4.064,25.223 3.875,25.736 3.721,26.267 3.678,26.698 3.555,27.069 3.487,27.51 3.543,28.041 6.75,26.584 8.25,26.792 10,27.667 11.213,31.29 14.206,34 18.001,34 c 3.793,0 6.746,-2.794 7.958,-6.416 1.458,-1.25 3.708,-0.875 6.416,0.416 0.066,-0.414 0.036,-0.773 -0.036,-1.093 z"
         id="path5-4"
         style="stroke:#000000;stroke-opacity:1;stroke-width:0.34913248;stroke-dasharray:none;paint-order:stroke fill markers" /><path
         fill="#ffd983"
         d="m 31.243,23.601 c 0.006,0 1.108,0.003 3.309,1.103 -1.249,-2.839 -7.525,-4.07 -9.931,-3.291 -1.171,1.954 -1.281,5.003 -3.383,6.622 -1.741,1.431 -4.713,1.458 -6.479,0 C 12.414,26.111 12.2,22.222 11.377,21.413 8.97,20.632 2.696,21.867 1.446,24.704 3.647,23.603 4.75,23.601 4.755,23.601 c 0,0.001 -1.103,2.208 -1.103,3.311 l 10e-4,-10e-4 v 10e-4 c 2.398,-1.573 5.116,-2.271 7.429,-0.452 1.666,7.921 12.293,7.545 13.833,0 2.314,-1.818 5.03,-1.122 7.429,0.452 v -10e-4 l 10e-4,10e-4 c 0.002,-1.103 -1.101,-3.311 -1.102,-3.311 z"
         id="path6-2"
         style="stroke:#000000;stroke-opacity:1;stroke-width:0.34913248;stroke-dasharray:none;paint-order:stroke fill markers" /><path
         fill="#272b2b"
         d="m 11,17 c 0,0 0,-1.5 1.5,-1.5 1.5,0 1.5,1.5 1.5,1.5 v 1.5 c 0,0 0,1.5 -1.5,1.5 C 11,20 11,18.5 11,18.5 Z m 11,0 c 0,0 0,-1.5 1.5,-1.5 1.5,0 1.5,1.5 1.5,1.5 v 1.5 c 0,0 0,1.5 -1.5,1.5 C 22,20 22,18.5 22,18.5 Z m -7.061,10.808 c -1.021,0.208 2.041,3.968 3.062,3.968 1.02,0 4.082,-3.76 3.062,-3.968 -1.021,-0.208 -5.103,-0.208 -6.124,0 z"
         id="path7-5"
         style="stroke:#000000;stroke-opacity:1;stroke-width:0.34913248;stroke-dasharray:none;paint-order:stroke fill markers" /></g></g></svg>
