<svg xmlns="http://www.w3.org/2000/svg" viewBox="0 0 600 600" width="600" height="600">
  <defs>
    <linearGradient id="flameFill" x1="18%" y1="86%" x2="76%" y2="12%">
      <stop offset="0%" stop-color="#DDF5F7"/>
      <stop offset="34%" stop-color="#FFFFFF"/>
      <stop offset="100%" stop-color="#F4E7E5"/>
    </linearGradient>
    <filter id="softAccent" x="-20%" y="-20%" width="140%" height="140%">
      <feDropShadow dx="-6" dy="10" stdDeviation="7" flood-color="#D9F4F7" flood-opacity="0.85"/>
      <feDropShadow dx="8" dy="-10" stdDeviation="7" flood-color="#F5E8E6" flood-opacity="0.75"/>
    </filter>
  </defs>
  <g filter="url(#softAccent)">
    <path d="M 208.99 579.00 C 199.52 579.71, 189.92 579.32, 180.41 578.94 C 170.90 578.55, 161.29 578.31, 151.95 576.68 C 142.61 575.05, 131.71 573.30, 124.37 569.15 C 117.04 565.00, 108.03 558.63, 107.94 551.78 C 107.85 544.93, 119.20 536.24, 123.85 528.05 C 128.49 519.86, 134.00 511.61, 135.81 502.63 C 137.62 493.65, 136.59 483.36, 134.70 474.17 C 132.81 464.98, 127.45 456.52, 124.44 447.49 C 121.44 438.46, 118.64 429.29, 116.67 419.98 C 114.69 410.68, 113.63 401.12, 112.60 391.65 C 111.57 382.17, 110.58 372.65, 110.50 363.13 C 110.41 353.62, 111.28 344.07, 112.10 334.57 C 112.93 325.08, 113.75 315.52, 115.43 306.16 C 117.10 296.79, 119.21 287.41, 122.17 278.37 C 125.13 269.34, 129.11 260.56, 133.21 251.95 C 137.31 243.34, 141.94 234.96, 146.77 226.73 C 151.60 218.51, 156.68 210.39, 162.20 202.62 C 167.73 194.85, 173.71 187.36, 179.90 180.11 C 186.10 172.87, 192.71 165.96, 199.39 159.15 C 206.07 152.34, 212.83 145.57, 219.96 139.24 C 227.10 132.92, 234.53 126.88, 242.19 121.21 C 249.85 115.53, 257.87 110.28, 265.93 105.18 C 273.99 100.07, 282.17 95.12, 290.56 90.59 C 298.95 86.06, 308.45 80.67, 316.27 77.99 C 324.08 75.31, 336.82 71.29, 337.47 74.51 C 338.11 77.73, 325.31 89.31, 320.12 97.29 C 314.93 105.26, 310.34 113.75, 306.32 122.38 C 302.30 131.01, 298.82 139.99, 296.01 149.06 C 293.20 158.13, 290.72 167.44, 289.45 176.81 C 288.18 186.18, 285.40 200.58, 288.37 205.28 C 291.35 209.98, 300.31 207.89, 307.30 205.01 C 314.29 202.14, 323.02 194.13, 330.33 188.02 C 337.64 181.92, 344.37 175.11, 351.14 168.39 C 357.90 161.68, 364.73 154.98, 370.92 147.74 C 377.11 140.51, 382.94 132.88, 388.28 124.99 C 393.61 117.10, 398.56 108.85, 402.94 100.40 C 407.32 91.95, 411.29 83.19, 414.56 74.26 C 417.82 65.33, 420.16 55.39, 422.53 46.81 C 424.90 38.23, 425.28 22.68, 428.76 22.79 C 432.25 22.91, 439.12 39.00, 443.43 47.51 C 447.75 56.01, 451.03 65.01, 454.64 73.83 C 458.26 82.65, 462.04 91.42, 465.13 100.43 C 468.22 109.44, 470.57 118.71, 473.16 127.88 C 475.75 137.05, 478.57 146.18, 480.68 155.47 C 482.80 164.76, 484.27 174.22, 485.87 183.62 C 487.47 193.03, 489.04 202.45, 490.30 211.90 C 491.56 221.35, 492.81 230.82, 493.43 240.32 C 494.04 249.83, 494.46 259.44, 493.97 268.93 C 493.48 278.43, 491.86 287.87, 490.49 297.30 C 489.12 306.73, 487.68 316.17, 485.75 325.50 C 483.81 334.83, 481.65 344.18, 478.88 353.29 C 476.11 362.40, 472.81 371.38, 469.14 380.18 C 465.46 388.97, 461.20 397.56, 456.84 406.05 C 452.48 414.53, 448.06 423.04, 442.97 431.09 C 437.88 439.14, 432.19 446.86, 426.31 454.36 C 420.44 461.85, 414.08 468.98, 407.72 476.08 C 401.35 483.18, 395.09 490.46, 388.11 496.93 C 381.13 503.40, 373.43 509.15, 365.82 514.90 C 358.22 520.65, 350.47 526.25, 342.47 531.43 C 334.47 536.61, 326.18 541.44, 317.80 545.99 C 309.43 550.55, 301.00 555.16, 292.21 558.78 C 283.41 562.39, 274.17 565.04, 265.01 567.69 C 255.86 570.33, 246.60 572.79, 237.27 574.67 C 227.93 576.56, 218.47 578.29, 208.99 579.00 Z" fill="url(#flameFill)"/>
  </g>
  <path d="M 160.97 559.06 C 150.32 559.77, 137.29 560.95, 128.79 559.16 C 120.30 557.37, 109.99 554.47, 109.98 548.31 C 109.98 542.16, 122.42 530.83, 128.75 522.25 C 135.07 513.67, 143.45 506.22, 147.91 496.83 C 152.38 487.44, 154.42 476.44, 155.52 465.93 C 156.61 455.43, 155.87 444.35, 154.47 433.80 C 153.08 423.25, 149.65 413.00, 147.16 402.62 C 144.67 392.23, 140.98 381.98, 139.53 371.47 C 138.09 360.97, 137.36 350.06, 138.50 339.59 C 139.64 329.12, 143.07 309.42, 146.36 308.65 C 149.65 307.87, 153.54 325.95, 158.23 334.96 C 162.92 343.97, 169.17 353.43, 174.52 362.72 C 179.87 372.01, 186.03 380.95, 190.30 390.71 C 194.58 400.48, 198.32 410.92, 200.18 421.33 C 202.04 431.74, 199.90 447.86, 201.45 453.18 C 203.01 458.49, 206.94 458.41, 209.51 453.23 C 212.09 448.04, 215.43 432.59, 216.90 422.05 C 218.38 411.52, 218.51 400.67, 218.36 390.00 C 218.21 379.33, 216.31 368.71, 216.01 358.03 C 215.70 347.35, 215.39 336.53, 216.51 325.95 C 217.63 315.36, 219.32 304.56, 222.74 294.53 C 226.16 284.50, 231.89 272.88, 237.01 265.76 C 242.13 258.65, 250.70 248.82, 253.47 251.83 C 256.23 254.84, 252.52 273.25, 253.59 283.82 C 254.67 294.38, 257.58 304.81, 259.92 315.20 C 262.27 325.60, 265.57 335.73, 267.65 346.17 C 269.74 356.61, 271.62 367.18, 272.42 377.83 C 273.23 388.48, 271.46 403.21, 272.51 410.09 C 273.56 416.97, 275.73 422.59, 278.71 419.10 C 281.68 415.60, 286.45 399.10, 290.35 389.12 C 294.25 379.14, 297.39 368.80, 302.11 359.22 C 306.83 349.65, 312.20 340.09, 318.68 331.66 C 325.16 323.23, 333.90 316.63, 340.99 308.63 C 348.08 300.63, 355.07 290.91, 361.23 283.65 C 367.38 276.39, 374.04 262.93, 377.90 265.05 C 381.75 267.17, 384.35 285.98, 384.37 296.38 C 384.39 306.78, 381.71 317.58, 378.04 327.45 C 374.37 337.32, 363.36 349.46, 362.37 355.58 C 361.38 361.70, 365.92 365.58, 372.09 364.19 C 378.26 362.80, 390.82 353.58, 399.40 347.22 C 407.99 340.86, 416.06 333.60, 423.58 326.00 C 431.10 318.40, 439.34 305.32, 444.51 301.62 C 449.68 297.92, 453.81 298.18, 454.58 303.80 C 455.35 309.43, 452.01 325.11, 449.14 335.36 C 446.27 345.61, 441.69 355.49, 437.33 365.29 C 432.98 375.08, 428.36 384.84, 423.03 394.12 C 417.70 403.39, 411.69 412.32, 405.35 420.94 C 399.01 429.55, 392.12 437.81, 384.99 445.81 C 377.86 453.81, 370.27 461.49, 362.56 468.94 C 354.84 476.40, 347.13 483.92, 338.71 490.53 C 330.29 497.15, 321.18 502.98, 312.05 508.61 C 302.92 514.23, 293.56 519.57, 283.93 524.29 C 274.31 529.00, 264.31 533.03, 254.30 536.90 C 244.29 540.76, 234.13 544.47, 223.87 547.47 C 213.61 550.47, 203.21 552.97, 192.72 554.90 C 182.24 556.83, 171.63 558.35, 160.97 559.06 Z" fill="#2F3737"/>
</svg>
