<?xml version="1.0" standalone="no"?>
<!DOCTYPE svg PUBLIC "-//W3C//DTD SVG 20010904//EN"
 "http://www.w3.org/TR/2001/REC-SVG-20010904/DTD/svg10.dtd">
<svg version="1.0" xmlns="http://www.w3.org/2000/svg"
 width="600.000000pt" height="600.000000pt" viewBox="0 0 600.000000 600.000000"
 preserveAspectRatio="xMidYMid meet">
<metadata>
Created by potrace 1.14, written by Peter Selinger 2001-2017
</metadata>
<g transform="translate(0.000000,600.000000) scale(0.100000,-0.100000)"
fill="#000000" stroke="none">
<path d="M4260 5756 c0 -77 -32 -276 -60 -366 -123 -408 -336 -746 -687 -1091
-198 -195 -293 -272 -474 -383 -35 -22 -71 -45 -79 -51 -8 -7 -25 -16 -37 -19
-19 -6 -23 -2 -31 36 -13 63 -5 310 13 408 42 217 148 487 273 695 40 66 153
220 202 274 17 19 29 35 27 37 -3 3 -179 -61 -252 -91 -227 -96 -705 -389
-850 -522 -11 -10 -36 -31 -55 -46 -19 -16 -83 -75 -141 -132 -342 -331 -532
-579 -715 -930 -25 -49 -50 -94 -54 -100 -4 -5 -35 -79 -69 -163 -76 -187
-118 -376 -137 -607 -2 -33 -7 -87 -10 -120 -8 -90 -8 -341 1 -415 9 -83 13
-115 19 -165 3 -22 7 -54 9 -70 2 -17 7 -37 12 -44 6 -10 4 -12 -5 -6 -10 6
-11 4 -4 -6 4 -8 9 -18 10 -24 1 -5 5 -26 8 -45 4 -19 9 -44 11 -55 2 -11 8
-40 15 -65 6 -25 14 -57 17 -72 3 -16 10 -25 16 -21 5 3 7 2 4 -4 -7 -11 14
-72 58 -168 35 -76 66 -175 60 -185 -3 -5 -1 -11 4 -14 10 -6 13 -42 12 -146
0 -57 -3 -92 -16 -186 -2 -12 -9 -32 -16 -45 -7 -13 -13 -28 -14 -32 0 -4 -6
-11 -13 -16 -8 -5 -13 -11 -13 -15 1 -3 -23 -37 -52 -74 -106 -133 -176 -250
-177 -295 0 -22 23 -47 42 -47 7 0 23 -6 34 -14 67 -47 321 -120 476 -136 168
-17 514 -14 613 5 11 2 33 4 48 4 16 1 26 4 24 9 -3 4 5 8 16 8 34 2 110 15
127 21 8 3 27 7 43 8 15 1 33 7 40 13 6 5 22 8 35 6 12 -2 22 1 22 6 0 6 10
10 23 10 13 0 27 4 33 9 5 4 32 14 59 21 90 22 179 52 245 83 35 16 70 30 78
31 7 2 17 8 22 15 4 8 12 11 18 7 6 -3 13 -2 16 3 6 9 52 36 176 104 30 17 64
39 74 49 11 10 23 18 27 18 11 0 133 73 137 82 2 5 8 8 14 8 6 0 20 9 32 20
11 10 71 56 131 101 61 45 147 115 193 157 180 162 514 567 584 706 17 34 40
75 52 91 11 17 21 32 22 35 0 3 41 88 91 190 91 187 145 316 158 380 4 19 11
40 15 45 4 6 10 21 12 35 3 14 22 95 41 180 33 144 86 456 92 543 1 21 5 41 9
44 3 3 1 13 -6 20 -9 11 -9 16 2 23 11 7 11 12 2 22 -9 11 -9 18 1 28 10 10 9
11 -1 5 -11 -6 -12 -3 -5 11 15 31 -3 278 -38 522 -10 74 -16 138 -13 143 3 5
1 9 -4 9 -12 0 -36 175 -26 191 4 7 3 9 -3 6 -6 -4 -13 7 -17 26 -3 17 -9 43
-12 57 -11 53 -23 144 -19 149 3 2 1 9 -4 15 -6 7 -12 23 -15 36 -2 14 -11 46
-19 72 -8 26 -12 50 -8 54 3 4 0 4 -8 -1 -11 -6 -13 -2 -9 18 3 16 1 24 -5 20
-6 -3 -8 6 -5 25 3 19 0 29 -5 25 -6 -4 -8 3 -5 15 4 12 2 22 -3 22 -4 0 -13
19 -19 43 -6 23 -27 94 -47 157 -20 63 -36 118 -35 123 1 4 -3 7 -9 7 -6 0 -9
7 -5 15 3 8 1 15 -5 15 -6 0 -7 5 -4 10 3 6 1 10 -5 10 -6 0 -9 4 -6 8 3 5 -3
22 -13 38 -10 16 -37 79 -61 139 -54 141 -120 270 -181 362 -60 88 -69 95 -69
49z"/>
</g>
</svg>
